<svg width="93" height="118" viewBox="0 0 93 118" fill="none" xmlns="http://www.w3.org/2000/svg">
<g clip-path="url(#clip0_109_194)">
<path d="M0 89.9727H3.96497C4.48504 89.9727 4.9843 90.0228 5.45028 90.1232C5.91625 90.2235 6.32814 90.395 6.68179 90.6333C7.03127 90.8716 7.31419 91.1894 7.52221 91.595C7.73024 91.9964 7.83425 92.4982 7.83425 93.1003C7.83425 93.8278 7.64703 94.4466 7.26842 94.9568C6.89397 95.4669 6.34063 95.7888 5.6167 95.9268L8.22534 100.28H5.51684L3.37418 96.161H2.25916V100.28H0V89.9768V89.9727ZM2.25916 94.2376H3.59053C3.79439 94.2376 4.00658 94.2292 4.2354 94.2167C4.46423 94.2041 4.6681 94.1581 4.85116 94.087C5.03422 94.016 5.18816 93.8989 5.30466 93.7442C5.42531 93.5895 5.48772 93.372 5.48772 93.0877C5.48772 92.8243 5.43363 92.6152 5.32962 92.4605C5.22145 92.3058 5.08831 92.1887 4.92189 92.1051C4.75547 92.0215 4.56825 91.9671 4.35606 91.9379C4.14387 91.9086 3.93585 91.896 3.73198 91.896H2.255V94.2376H2.25916Z" fill="white"/>
<path d="M9.46924 89.9724H16.4339V92.0673H11.7284V93.9865H16.176V96.0813H11.7284V98.1761H16.6961V100.271H9.46924V89.9683V89.9724Z" fill="white"/>
<path d="M23.5735 92.4898C23.3905 92.2557 23.1408 92.0842 22.8288 91.9755C22.5168 91.8668 22.2172 91.8083 21.9385 91.8083C21.772 91.8083 21.6056 91.8292 21.4309 91.8668C21.2561 91.9044 21.0939 91.9672 20.9399 92.0466C20.786 92.126 20.6612 92.2389 20.5655 92.3727C20.4698 92.5107 20.4199 92.6738 20.4199 92.8661C20.4199 93.1755 20.5364 93.4139 20.7694 93.5811C21.0023 93.7484 21.2936 93.8864 21.6431 94.0034C21.9925 94.1205 22.3753 94.2376 22.7789 94.3505C23.1825 94.4634 23.5652 94.6306 23.9147 94.8439C24.2642 95.0571 24.5596 95.3415 24.7884 95.701C25.0172 96.0606 25.1337 96.5415 25.1337 97.1436C25.1337 97.7457 25.0297 98.2182 24.8175 98.6447C24.6053 99.0712 24.3183 99.4266 23.9563 99.7067C23.5943 99.9869 23.1741 100.196 22.6957 100.334C22.2172 100.472 21.7138 100.539 21.1812 100.539C20.5156 100.539 19.8956 100.438 19.3257 100.234C18.7557 100.029 18.2231 99.7025 17.7322 99.2426L19.3423 97.4697C19.5753 97.7791 19.8665 98.0217 20.216 98.1889C20.5655 98.3562 20.9316 98.444 21.3102 98.444C21.4933 98.444 21.6805 98.4231 21.8677 98.3771C22.055 98.3352 22.2255 98.2683 22.3753 98.1805C22.5251 98.0927 22.6457 97.9798 22.7373 97.846C22.8288 97.7122 22.8746 97.5492 22.8746 97.3652C22.8746 97.0558 22.7581 96.8091 22.5209 96.6293C22.2838 96.4495 21.9842 96.2948 21.6306 96.1693C21.2769 96.0439 20.8858 95.9185 20.4698 95.7888C20.0537 95.6634 19.671 95.492 19.3132 95.2787C18.9554 95.0655 18.66 94.7853 18.4228 94.4341C18.1857 94.0871 18.0692 93.6271 18.0692 93.0501C18.0692 92.4731 18.1774 92.0131 18.3937 91.595C18.61 91.1769 18.9013 90.8298 19.2632 90.5497C19.6252 90.2696 20.0413 90.0563 20.5156 89.9183C20.9899 89.7762 21.4766 89.7051 21.9759 89.7051C22.5542 89.7051 23.1159 89.7887 23.6568 89.9518C24.1976 90.1148 24.6844 90.395 25.1171 90.7797L23.5694 92.4815L23.5735 92.4898Z" fill="white"/>
<path d="M26.7896 89.9727H29.0487V100.275H26.7896V89.9727Z" fill="white"/>
<path d="M31.104 89.9727H34.4907C35.3103 89.9727 36.0883 90.0646 36.8289 90.2486C37.5653 90.4326 38.2102 90.7337 38.7635 91.1434C39.3127 91.5574 39.7496 92.0926 40.0741 92.7532C40.3986 93.4139 40.5609 94.2125 40.5609 95.1533C40.5609 95.9895 40.4028 96.7213 40.0907 97.361C39.7787 97.9965 39.3543 98.5317 38.8218 98.9624C38.2892 99.3931 37.6776 99.7234 36.9828 99.945C36.288 100.167 35.5599 100.28 34.7985 100.28H31.1082V89.9768L31.104 89.9727ZM33.3632 98.1805H34.5364C35.0565 98.1805 35.5433 98.1262 35.9926 98.0216C36.4419 97.9129 36.8289 97.7373 37.1576 97.4906C37.4862 97.2439 37.7442 96.9178 37.9314 96.5164C38.1186 96.115 38.2143 95.6216 38.2143 95.0404C38.2143 94.5344 38.1186 94.0996 37.9314 93.7233C37.7442 93.3511 37.4904 93.0417 37.17 92.7992C36.8497 92.5567 36.4752 92.3769 36.0467 92.2515C35.6182 92.1302 35.1647 92.0717 34.6945 92.0717H33.3632V98.1847V98.1805Z" fill="white"/>
<path d="M42.1833 89.9724H49.1481V92.0673H44.4425V93.9865H48.8901V96.0813H44.4425V98.1761H49.4102V100.271H42.1833V89.9683V89.9724Z" fill="white"/>
<path d="M51.2202 89.9727H54.2907L58.6509 97.131H58.68V89.9727H60.9392V100.275H57.9852L53.5085 92.9414H53.4794V100.275H51.2202V89.9727Z" fill="white"/>
<path d="M65.0039 91.9797H62.0791V89.9727H70.1879V91.9797H67.2631V100.275H65.0039V91.9797Z" fill="white"/>
<path d="M71.303 89.9727H73.5621V100.275H71.303V89.9727Z" fill="white"/>
<path d="M78.9915 89.9727H80.8596L85.3196 100.275H82.7692L81.8872 98.0927H77.9056L77.0527 100.275H74.5605L78.9915 89.9727ZM79.861 92.9706L78.617 96.1735H81.1217L79.861 92.9706Z" fill="white"/>
<path d="M86.4348 89.9727H88.694V98.1805H92.8795V100.275H86.4348V89.9727Z" fill="white"/>
<path d="M0 107.438H3.82351C4.26869 107.438 4.71386 107.467 5.1632 107.534C5.61253 107.597 6.01611 107.722 6.37391 107.91C6.73171 108.099 7.02295 108.366 7.24346 108.705C7.46396 109.044 7.5763 109.495 7.5763 110.06C7.5763 110.624 7.41404 111.126 7.08952 111.506C6.765 111.887 6.34063 112.163 5.80808 112.33V112.359C6.14508 112.41 6.45296 112.502 6.72755 112.644C7.00215 112.786 7.2393 112.966 7.439 113.183C7.63455 113.4 7.78848 113.656 7.8925 113.948C8.00067 114.241 8.05476 114.55 8.05476 114.881C8.05476 115.424 7.93826 115.876 7.70527 116.24C7.47229 116.603 7.17689 116.896 6.8066 117.118C6.43632 117.339 6.02443 117.502 5.56677 117.599C5.10911 117.695 4.65146 117.745 4.19796 117.745H0V107.442V107.438ZM2.25916 111.557H3.89424C4.06898 111.557 4.23957 111.536 4.41015 111.498C4.58073 111.46 4.73051 111.398 4.8678 111.31C5.00094 111.222 5.10911 111.105 5.19232 110.963C5.27553 110.821 5.31714 110.641 5.31714 110.44C5.31714 110.227 5.27137 110.051 5.17984 109.909C5.08831 109.771 4.97182 109.658 4.8262 109.583C4.68058 109.504 4.51832 109.449 4.33526 109.416C4.15219 109.382 3.97329 109.366 3.79855 109.366H2.26332V111.561L2.25916 111.557ZM2.25916 115.821H4.28533C4.46007 115.821 4.63481 115.801 4.81372 115.763C4.99262 115.725 5.15488 115.658 5.29634 115.558C5.44195 115.462 5.55845 115.336 5.64998 115.178C5.74151 115.023 5.78728 114.835 5.78728 114.609C5.78728 114.366 5.72487 114.17 5.60837 114.019C5.48772 113.869 5.33378 113.756 5.15072 113.676C4.96766 113.601 4.76795 113.547 4.55576 113.518C4.34358 113.488 4.14387 113.476 3.96081 113.476H2.25916V115.817V115.821Z" fill="white"/>
<path d="M18.0276 113.768C18.0276 114.379 17.9361 114.943 17.753 115.458C17.57 115.972 17.2954 116.419 16.9334 116.796C16.5715 117.172 16.118 117.469 15.5812 117.682C15.0404 117.895 14.4163 118 13.7132 118C13.01 118 12.3693 117.895 11.8285 117.682C11.2876 117.469 10.8383 117.172 10.4763 116.796C10.1143 116.415 9.8439 115.972 9.65667 115.458C9.47361 114.943 9.38208 114.379 9.38208 113.768V107.438H11.6412V113.681C11.6412 113.998 11.6912 114.295 11.791 114.567C11.8909 114.839 12.0365 115.073 12.2196 115.274C12.4026 115.474 12.6231 115.629 12.8769 115.738C13.1307 115.847 13.4095 115.905 13.709 115.905C14.0086 115.905 14.2832 115.851 14.5328 115.738C14.7824 115.625 15.0029 115.47 15.186 115.274C15.3691 115.077 15.5105 114.839 15.6145 114.567C15.7185 114.295 15.7643 113.998 15.7643 113.681V107.438H18.0235V113.768H18.0276Z" fill="white"/>
<path d="M20.0869 107.438H22.3461V117.741H20.0869V107.438Z" fill="white"/>
<path d="M24.4888 107.438H26.7479V115.646H30.9334V117.741H24.4888V107.438Z" fill="white"/>
<path d="M32.1775 107.438H35.5642C36.3838 107.438 37.1618 107.53 37.9024 107.714C38.6388 107.898 39.2837 108.199 39.837 108.609C40.3862 109.023 40.823 109.558 41.1476 110.219C41.4721 110.879 41.6343 111.678 41.6343 112.619C41.6343 113.455 41.4762 114.187 41.1642 114.826C40.8522 115.462 40.4278 115.997 39.8952 116.428C39.3669 116.858 38.7511 117.189 38.0563 117.41C37.3615 117.632 36.6334 117.745 35.872 117.745H32.1817V107.442L32.1775 107.438ZM34.4367 115.646H35.6099C36.13 115.646 36.6168 115.591 37.0661 115.487C37.5154 115.378 37.9024 115.203 38.231 114.956C38.5597 114.709 38.8177 114.383 39.0049 113.982C39.1921 113.58 39.2878 113.087 39.2878 112.506C39.2878 112 39.1921 111.565 39.0049 111.189C38.8177 110.816 38.5639 110.507 38.2435 110.265C37.9232 110.022 37.5487 109.842 37.1202 109.717C36.6917 109.596 36.2382 109.537 35.768 109.537H34.4367V115.65V115.646Z" fill="white"/>
<path d="M43.1404 107.438H45.3995V117.741H43.1404V107.438Z" fill="white"/>
<path d="M47.4548 107.438H50.5253L54.8855 114.596H54.9146V107.438H57.1738V117.741H54.2198L49.7431 110.407H49.714V117.741H47.4548V107.438Z" fill="white"/>
<path d="M68.5361 117.013C67.8704 117.36 67.1756 117.615 66.4517 117.77C65.7278 117.925 64.9914 118.004 64.2383 118.004C63.4353 118.004 62.6989 117.879 62.0249 117.628C61.3468 117.377 60.7643 117.013 60.2733 116.545C59.7824 116.076 59.3996 115.504 59.1209 114.835C58.8463 114.166 58.709 113.417 58.709 112.593C58.709 111.77 58.8463 111.021 59.1209 110.352C59.3955 109.683 59.7782 109.115 60.2733 108.642C60.7643 108.174 61.3509 107.81 62.0249 107.559C62.6989 107.308 63.4395 107.179 64.2383 107.179C65.0371 107.179 65.8151 107.279 66.5058 107.48C67.1964 107.68 67.8039 108.019 68.3239 108.504L66.7305 110.252C66.4226 109.93 66.0731 109.687 65.6862 109.524C65.2992 109.357 64.8166 109.278 64.2383 109.278C63.7557 109.278 63.3188 109.361 62.9277 109.524C62.5367 109.687 62.1997 109.917 61.9209 110.214C61.6421 110.511 61.4258 110.862 61.276 111.268C61.1262 111.678 61.0514 112.117 61.0514 112.593C61.0514 113.07 61.1262 113.522 61.276 113.923C61.4258 114.329 61.6421 114.676 61.9209 114.973C62.1997 115.27 62.5367 115.499 62.9277 115.663C63.3188 115.826 63.7557 115.909 64.2383 115.909C64.7209 115.909 65.1578 115.855 65.5114 115.742C65.8651 115.629 66.1521 115.516 66.3643 115.399V113.727H64.5254V111.632H68.5361V117.017V117.013Z" fill="white"/>
<path d="M26.8435 65.8511H16.3091V68.824H26.8435V65.8511Z" fill="white"/>
<path d="M70.4084 39.279C59.6327 39.279 50.8665 30.469 50.8665 19.6395C50.8665 8.80997 59.6327 0 70.4084 0C81.1841 0 89.9503 8.80997 89.9503 19.6395C89.9503 30.469 81.1841 39.279 70.4084 39.279ZM70.4084 2.97707C61.2677 2.97707 53.8287 10.4532 53.8287 19.6395C53.8287 28.8258 61.2677 36.3019 70.4084 36.3019C79.549 36.3019 86.988 28.8258 86.988 19.6395C86.988 10.4532 79.549 2.97707 70.4084 2.97707Z" fill="white"/>
<path d="M1.5643 30.7786L0.224609 28.1067L41.1974 8.50488L42.537 11.1725L1.5643 30.7786Z" fill="white"/>
<path d="M41.8673 33.5801H0.894531V36.553H41.8673V33.5801Z" fill="white"/>
<path d="M41.8673 3.81348H0.894531V6.78637H41.8673V3.81348Z" fill="white"/>
<path d="M40.0989 56.464L39.6621 56.0835C37.5069 54.181 30.9832 48.4276 21.5597 48.6367C11.8906 48.8875 5.44181 54.1518 3.11609 56.4013L1.06079 54.2605C3.63615 51.7684 10.7756 45.9397 21.4848 45.6638C32.0858 45.3753 39.246 51.7559 41.6175 53.8465L42.0169 54.1936L40.1031 56.4598L40.0989 56.464Z" fill="white"/>
<path d="M3.5697 59.0732H0.611572V81.0292H3.5697V59.0732Z" fill="white"/>
<path d="M42.537 59.0732H39.5789V81.0292H42.537V59.0732Z" fill="white"/>
<path d="M53.7164 59.2363H50.7583V80.8703H53.7164V59.2363Z" fill="white"/>
<path d="M91.0902 56.7483L90.645 56.3595C88.4399 54.4152 81.7457 48.4819 72.1307 48.7453C62.2412 49.0004 55.6468 54.3817 53.2711 56.6856L51.2158 54.5448C53.8411 52.0026 61.1262 46.0526 72.0558 45.7724C82.8399 45.5007 90.1791 51.99 92.6005 54.1266L93.0082 54.4821L91.0944 56.7483H91.0902Z" fill="white"/>
<path d="M74.3935 61.7436L72.3018 63.8457L89.1237 80.7516L91.2154 78.6495L74.3935 61.7436Z" fill="white"/>
</g>
<defs>
<clipPath id="clip0_109_194">
<rect width="93" height="118" fill="white"/>
</clipPath>
</defs>
</svg>
